<mxfile host="app.diagrams.net" modified="2024-07-13T09:08:03.694Z" agent="Mozilla/5.0 (X11; Linux x86_64; rv:127.0) Gecko/20100101 Firefox/127.0" etag="e6pZkcDJ89jBR4xJ7Yjl" version="24.6.5" type="device">
  <diagram name="Page-1" id="tFx-aanngQLOp6bqi9tI">
    <mxGraphModel dx="1434" dy="750" grid="1" gridSize="10" guides="1" tooltips="1" connect="1" arrows="1" fold="1" page="1" pageScale="1" pageWidth="850" pageHeight="1100" math="0" shadow="0">
      <root>
        <mxCell id="0" />
        <mxCell id="1" parent="0" />
        <mxCell id="f22SK7kLjeVwcVovHJJA-3" value="router" style="rounded=1;whiteSpace=wrap;html=1;" vertex="1" parent="1">
          <mxGeometry x="350" y="140" width="120" height="60" as="geometry" />
        </mxCell>
        <mxCell id="f22SK7kLjeVwcVovHJJA-4" value="cookie verify" style="rounded=1;whiteSpace=wrap;html=1;" vertex="1" parent="1">
          <mxGeometry x="60" y="530" width="120" height="60" as="geometry" />
        </mxCell>
        <mxCell id="f22SK7kLjeVwcVovHJJA-5" value="decrypt" style="rounded=1;whiteSpace=wrap;html=1;" vertex="1" parent="1">
          <mxGeometry x="660" y="190" width="120" height="60" as="geometry" />
        </mxCell>
        <mxCell id="f22SK7kLjeVwcVovHJJA-6" value="extract hello from introduction" style="rounded=1;whiteSpace=wrap;html=1;" vertex="1" parent="1">
          <mxGeometry x="500" y="570" width="120" height="60" as="geometry" />
        </mxCell>
        <mxCell id="f22SK7kLjeVwcVovHJJA-8" value="udp receive" style="rounded=1;whiteSpace=wrap;html=1;" vertex="1" parent="1">
          <mxGeometry x="660" y="40" width="120" height="60" as="geometry" />
        </mxCell>
        <mxCell id="f22SK7kLjeVwcVovHJJA-9" value="Packets deserialize" style="rounded=1;whiteSpace=wrap;html=1;" vertex="1" parent="1">
          <mxGeometry x="300" y="350" width="120" height="60" as="geometry" />
        </mxCell>
        <mxCell id="f22SK7kLjeVwcVovHJJA-10" value="signature verify" style="rounded=1;whiteSpace=wrap;html=1;" vertex="1" parent="1">
          <mxGeometry x="60" y="720" width="120" height="60" as="geometry" />
        </mxCell>
        <mxCell id="f22SK7kLjeVwcVovHJJA-11" value="channel router" style="rounded=1;whiteSpace=wrap;html=1;" vertex="1" parent="1">
          <mxGeometry x="830" y="530" width="120" height="60" as="geometry" />
        </mxCell>
        <mxCell id="f22SK7kLjeVwcVovHJJA-12" value="channel recv buffer" style="rounded=1;whiteSpace=wrap;html=1;" vertex="1" parent="1">
          <mxGeometry x="810" y="700" width="120" height="60" as="geometry" />
        </mxCell>
        <mxCell id="f22SK7kLjeVwcVovHJJA-13" value="channel recv consumable" style="rounded=1;whiteSpace=wrap;html=1;" vertex="1" parent="1">
          <mxGeometry x="1040" y="700" width="120" height="60" as="geometry" />
        </mxCell>
        <mxCell id="f22SK7kLjeVwcVovHJJA-15" value="packages sender" style="rounded=1;whiteSpace=wrap;html=1;" vertex="1" parent="1">
          <mxGeometry x="800" y="880" width="120" height="60" as="geometry" />
        </mxCell>
        <mxCell id="f22SK7kLjeVwcVovHJJA-17" value="" style="endArrow=classic;html=1;rounded=0;exitX=0;exitY=0.5;exitDx=0;exitDy=0;entryX=0.5;entryY=0;entryDx=0;entryDy=0;" edge="1" parent="1" source="f22SK7kLjeVwcVovHJJA-8" target="f22SK7kLjeVwcVovHJJA-3">
          <mxGeometry relative="1" as="geometry">
            <mxPoint x="180" y="240" as="sourcePoint" />
            <mxPoint x="280" y="240" as="targetPoint" />
          </mxGeometry>
        </mxCell>
        <mxCell id="f22SK7kLjeVwcVovHJJA-18" value="udp packets" style="edgeLabel;resizable=0;html=1;;align=center;verticalAlign=middle;" connectable="0" vertex="1" parent="f22SK7kLjeVwcVovHJJA-17">
          <mxGeometry relative="1" as="geometry" />
        </mxCell>
        <mxCell id="f22SK7kLjeVwcVovHJJA-20" value="" style="endArrow=classic;html=1;rounded=0;exitX=1;exitY=0.5;exitDx=0;exitDy=0;entryX=0;entryY=0.5;entryDx=0;entryDy=0;" edge="1" parent="1" source="f22SK7kLjeVwcVovHJJA-3" target="f22SK7kLjeVwcVovHJJA-5">
          <mxGeometry relative="1" as="geometry">
            <mxPoint x="180" y="240" as="sourcePoint" />
            <mxPoint x="280" y="240" as="targetPoint" />
          </mxGeometry>
        </mxCell>
        <mxCell id="f22SK7kLjeVwcVovHJJA-21" value="encrypted packets&lt;br&gt;(data and introduction packets only)" style="edgeLabel;resizable=0;html=1;;align=center;verticalAlign=middle;" connectable="0" vertex="1" parent="f22SK7kLjeVwcVovHJJA-20">
          <mxGeometry relative="1" as="geometry" />
        </mxCell>
        <mxCell id="f22SK7kLjeVwcVovHJJA-22" value="" style="endArrow=classic;html=1;rounded=0;exitX=0.5;exitY=1;exitDx=0;exitDy=0;entryX=0.5;entryY=0;entryDx=0;entryDy=0;" edge="1" parent="1" source="f22SK7kLjeVwcVovHJJA-3" target="f22SK7kLjeVwcVovHJJA-9">
          <mxGeometry relative="1" as="geometry">
            <mxPoint x="180" y="240" as="sourcePoint" />
            <mxPoint x="280" y="240" as="targetPoint" />
          </mxGeometry>
        </mxCell>
        <mxCell id="f22SK7kLjeVwcVovHJJA-23" value="unencrypted packets&lt;br&gt;(hello packets only)" style="edgeLabel;resizable=0;html=1;;align=center;verticalAlign=middle;" connectable="0" vertex="1" parent="f22SK7kLjeVwcVovHJJA-22">
          <mxGeometry relative="1" as="geometry" />
        </mxCell>
        <mxCell id="f22SK7kLjeVwcVovHJJA-25" value="" style="endArrow=classic;html=1;rounded=0;exitX=0.5;exitY=1;exitDx=0;exitDy=0;entryX=0.5;entryY=0;entryDx=0;entryDy=0;" edge="1" parent="1" source="f22SK7kLjeVwcVovHJJA-9" target="f22SK7kLjeVwcVovHJJA-4">
          <mxGeometry relative="1" as="geometry">
            <mxPoint x="180" y="450" as="sourcePoint" />
            <mxPoint x="280" y="450" as="targetPoint" />
          </mxGeometry>
        </mxCell>
        <mxCell id="f22SK7kLjeVwcVovHJJA-26" value="hello packets" style="edgeLabel;resizable=0;html=1;;align=center;verticalAlign=middle;" connectable="0" vertex="1" parent="f22SK7kLjeVwcVovHJJA-25">
          <mxGeometry relative="1" as="geometry" />
        </mxCell>
        <mxCell id="f22SK7kLjeVwcVovHJJA-27" value="" style="endArrow=classic;html=1;rounded=0;exitX=0.5;exitY=1;exitDx=0;exitDy=0;entryX=0.5;entryY=0;entryDx=0;entryDy=0;" edge="1" parent="1" source="f22SK7kLjeVwcVovHJJA-4" target="f22SK7kLjeVwcVovHJJA-10">
          <mxGeometry relative="1" as="geometry">
            <mxPoint x="180" y="570" as="sourcePoint" />
            <mxPoint x="280" y="570" as="targetPoint" />
          </mxGeometry>
        </mxCell>
        <mxCell id="f22SK7kLjeVwcVovHJJA-28" value="failed cookie check packets and correct cookie" style="edgeLabel;resizable=0;html=1;;align=center;verticalAlign=middle;" connectable="0" vertex="1" parent="f22SK7kLjeVwcVovHJJA-27">
          <mxGeometry relative="1" as="geometry" />
        </mxCell>
        <mxCell id="f22SK7kLjeVwcVovHJJA-29" value="" style="endArrow=classic;html=1;rounded=0;entryX=0;entryY=1;entryDx=0;entryDy=0;exitX=0.083;exitY=0;exitDx=0;exitDy=0;exitPerimeter=0;" edge="1" parent="1" source="f22SK7kLjeVwcVovHJJA-4" target="f22SK7kLjeVwcVovHJJA-3">
          <mxGeometry relative="1" as="geometry">
            <mxPoint x="180" y="420" as="sourcePoint" />
            <mxPoint x="280" y="420" as="targetPoint" />
          </mxGeometry>
        </mxCell>
        <mxCell id="f22SK7kLjeVwcVovHJJA-30" value="new encrypted connection&lt;br&gt;if valid cookie" style="edgeLabel;resizable=0;html=1;;align=center;verticalAlign=middle;" connectable="0" vertex="1" parent="f22SK7kLjeVwcVovHJJA-29">
          <mxGeometry relative="1" as="geometry" />
        </mxCell>
        <mxCell id="f22SK7kLjeVwcVovHJJA-31" value="udp send" style="rounded=1;whiteSpace=wrap;html=1;" vertex="1" parent="1">
          <mxGeometry x="410" y="990" width="120" height="60" as="geometry" />
        </mxCell>
        <mxCell id="f22SK7kLjeVwcVovHJJA-32" value="packets serialize" style="rounded=1;whiteSpace=wrap;html=1;" vertex="1" parent="1">
          <mxGeometry x="200" y="880" width="120" height="60" as="geometry" />
        </mxCell>
        <mxCell id="f22SK7kLjeVwcVovHJJA-33" value="" style="endArrow=classic;html=1;rounded=0;exitX=0.5;exitY=1;exitDx=0;exitDy=0;entryX=0.5;entryY=0;entryDx=0;entryDy=0;" edge="1" parent="1" source="f22SK7kLjeVwcVovHJJA-10" target="f22SK7kLjeVwcVovHJJA-32">
          <mxGeometry relative="1" as="geometry">
            <mxPoint x="180" y="840" as="sourcePoint" />
            <mxPoint x="280" y="840" as="targetPoint" />
          </mxGeometry>
        </mxCell>
        <mxCell id="f22SK7kLjeVwcVovHJJA-34" value="hello retry&lt;br&gt;with correct cookie" style="edgeLabel;resizable=0;html=1;;align=center;verticalAlign=middle;" connectable="0" vertex="1" parent="f22SK7kLjeVwcVovHJJA-33">
          <mxGeometry relative="1" as="geometry" />
        </mxCell>
        <mxCell id="f22SK7kLjeVwcVovHJJA-35" value="" style="endArrow=classic;html=1;rounded=0;entryX=0.5;entryY=0;entryDx=0;entryDy=0;exitX=0.5;exitY=1;exitDx=0;exitDy=0;" edge="1" parent="1" source="f22SK7kLjeVwcVovHJJA-32" target="f22SK7kLjeVwcVovHJJA-31">
          <mxGeometry relative="1" as="geometry">
            <mxPoint x="180" y="930" as="sourcePoint" />
            <mxPoint x="280" y="930" as="targetPoint" />
          </mxGeometry>
        </mxCell>
        <mxCell id="f22SK7kLjeVwcVovHJJA-36" value="serialized packets" style="edgeLabel;resizable=0;html=1;;align=center;verticalAlign=middle;" connectable="0" vertex="1" parent="f22SK7kLjeVwcVovHJJA-35">
          <mxGeometry relative="1" as="geometry" />
        </mxCell>
        <mxCell id="f22SK7kLjeVwcVovHJJA-37" value="" style="endArrow=classic;html=1;rounded=0;exitX=0.25;exitY=1;exitDx=0;exitDy=0;entryX=0.25;entryY=0;entryDx=0;entryDy=0;" edge="1" parent="1" source="f22SK7kLjeVwcVovHJJA-32" target="f22SK7kLjeVwcVovHJJA-39">
          <mxGeometry relative="1" as="geometry">
            <mxPoint x="650" y="750" as="sourcePoint" />
            <mxPoint x="750" y="750" as="targetPoint" />
          </mxGeometry>
        </mxCell>
        <mxCell id="f22SK7kLjeVwcVovHJJA-38" value="data and introduction packets" style="edgeLabel;resizable=0;html=1;;align=center;verticalAlign=middle;" connectable="0" vertex="1" parent="f22SK7kLjeVwcVovHJJA-37">
          <mxGeometry relative="1" as="geometry" />
        </mxCell>
        <mxCell id="f22SK7kLjeVwcVovHJJA-39" value="encrypt" style="rounded=1;whiteSpace=wrap;html=1;" vertex="1" parent="1">
          <mxGeometry x="60" y="1010" width="120" height="60" as="geometry" />
        </mxCell>
        <mxCell id="f22SK7kLjeVwcVovHJJA-40" value="" style="endArrow=classic;html=1;rounded=0;exitX=1;exitY=0.5;exitDx=0;exitDy=0;entryX=0;entryY=0.5;entryDx=0;entryDy=0;" edge="1" parent="1" source="f22SK7kLjeVwcVovHJJA-39" target="f22SK7kLjeVwcVovHJJA-31">
          <mxGeometry relative="1" as="geometry">
            <mxPoint x="650" y="750" as="sourcePoint" />
            <mxPoint x="750" y="750" as="targetPoint" />
          </mxGeometry>
        </mxCell>
        <mxCell id="f22SK7kLjeVwcVovHJJA-41" value="encrypted packets" style="edgeLabel;resizable=0;html=1;;align=center;verticalAlign=middle;" connectable="0" vertex="1" parent="f22SK7kLjeVwcVovHJJA-40">
          <mxGeometry relative="1" as="geometry" />
        </mxCell>
        <mxCell id="f22SK7kLjeVwcVovHJJA-42" value="" style="endArrow=classic;html=1;rounded=0;exitX=0;exitY=1;exitDx=0;exitDy=0;entryX=1;entryY=0.5;entryDx=0;entryDy=0;" edge="1" parent="1" source="f22SK7kLjeVwcVovHJJA-5" target="f22SK7kLjeVwcVovHJJA-9">
          <mxGeometry relative="1" as="geometry">
            <mxPoint x="650" y="570" as="sourcePoint" />
            <mxPoint x="750" y="570" as="targetPoint" />
          </mxGeometry>
        </mxCell>
        <mxCell id="f22SK7kLjeVwcVovHJJA-43" value="decrypted packets" style="edgeLabel;resizable=0;html=1;;align=center;verticalAlign=middle;" connectable="0" vertex="1" parent="f22SK7kLjeVwcVovHJJA-42">
          <mxGeometry relative="1" as="geometry" />
        </mxCell>
        <mxCell id="f22SK7kLjeVwcVovHJJA-44" value="" style="endArrow=classic;html=1;rounded=0;exitX=0.75;exitY=1;exitDx=0;exitDy=0;entryX=0.5;entryY=0;entryDx=0;entryDy=0;" edge="1" parent="1" source="f22SK7kLjeVwcVovHJJA-9" target="f22SK7kLjeVwcVovHJJA-6">
          <mxGeometry relative="1" as="geometry">
            <mxPoint x="650" y="540" as="sourcePoint" />
            <mxPoint x="750" y="540" as="targetPoint" />
          </mxGeometry>
        </mxCell>
        <mxCell id="f22SK7kLjeVwcVovHJJA-45" value="introduction packets" style="edgeLabel;resizable=0;html=1;;align=center;verticalAlign=middle;" connectable="0" vertex="1" parent="f22SK7kLjeVwcVovHJJA-44">
          <mxGeometry relative="1" as="geometry" />
        </mxCell>
        <mxCell id="f22SK7kLjeVwcVovHJJA-46" value="" style="endArrow=classic;html=1;rounded=0;exitX=0;exitY=0.5;exitDx=0;exitDy=0;entryX=1;entryY=0.5;entryDx=0;entryDy=0;" edge="1" parent="1" source="f22SK7kLjeVwcVovHJJA-6" target="f22SK7kLjeVwcVovHJJA-10">
          <mxGeometry relative="1" as="geometry">
            <mxPoint x="650" y="600" as="sourcePoint" />
            <mxPoint x="750" y="600" as="targetPoint" />
          </mxGeometry>
        </mxCell>
        <mxCell id="f22SK7kLjeVwcVovHJJA-47" value="hello packet" style="edgeLabel;resizable=0;html=1;;align=center;verticalAlign=middle;" connectable="0" vertex="1" parent="f22SK7kLjeVwcVovHJJA-46">
          <mxGeometry relative="1" as="geometry" />
        </mxCell>
        <mxCell id="f22SK7kLjeVwcVovHJJA-48" value="" style="endArrow=classic;html=1;rounded=0;exitX=1;exitY=1;exitDx=0;exitDy=0;entryX=0;entryY=0.5;entryDx=0;entryDy=0;" edge="1" parent="1" source="f22SK7kLjeVwcVovHJJA-9" target="f22SK7kLjeVwcVovHJJA-11">
          <mxGeometry relative="1" as="geometry">
            <mxPoint x="650" y="630" as="sourcePoint" />
            <mxPoint x="750" y="630" as="targetPoint" />
          </mxGeometry>
        </mxCell>
        <mxCell id="f22SK7kLjeVwcVovHJJA-49" value="data packets" style="edgeLabel;resizable=0;html=1;;align=center;verticalAlign=middle;" connectable="0" vertex="1" parent="f22SK7kLjeVwcVovHJJA-48">
          <mxGeometry relative="1" as="geometry" />
        </mxCell>
        <mxCell id="f22SK7kLjeVwcVovHJJA-50" value="" style="endArrow=classic;html=1;rounded=0;entryX=0.5;entryY=0;entryDx=0;entryDy=0;exitX=0.5;exitY=1;exitDx=0;exitDy=0;" edge="1" parent="1" source="f22SK7kLjeVwcVovHJJA-11" target="f22SK7kLjeVwcVovHJJA-12">
          <mxGeometry relative="1" as="geometry">
            <mxPoint x="650" y="510" as="sourcePoint" />
            <mxPoint x="750" y="510" as="targetPoint" />
          </mxGeometry>
        </mxCell>
        <mxCell id="f22SK7kLjeVwcVovHJJA-51" value="data packets" style="edgeLabel;resizable=0;html=1;;align=center;verticalAlign=middle;" connectable="0" vertex="1" parent="f22SK7kLjeVwcVovHJJA-50">
          <mxGeometry relative="1" as="geometry" />
        </mxCell>
        <mxCell id="f22SK7kLjeVwcVovHJJA-55" value="" style="endArrow=classic;html=1;rounded=0;exitX=0.5;exitY=1;exitDx=0;exitDy=0;entryX=0.5;entryY=0;entryDx=0;entryDy=0;" edge="1" parent="1" source="f22SK7kLjeVwcVovHJJA-12" target="f22SK7kLjeVwcVovHJJA-15">
          <mxGeometry relative="1" as="geometry">
            <mxPoint x="650" y="720" as="sourcePoint" />
            <mxPoint x="750" y="720" as="targetPoint" />
          </mxGeometry>
        </mxCell>
        <mxCell id="f22SK7kLjeVwcVovHJJA-56" value="remove acked packets and&lt;br&gt;get packets needed to resend" style="edgeLabel;resizable=0;html=1;;align=center;verticalAlign=middle;" connectable="0" vertex="1" parent="f22SK7kLjeVwcVovHJJA-55">
          <mxGeometry relative="1" as="geometry" />
        </mxCell>
        <mxCell id="f22SK7kLjeVwcVovHJJA-57" value="" style="endArrow=classic;html=1;rounded=0;entryX=0;entryY=1;entryDx=0;entryDy=0;exitX=0;exitY=0;exitDx=0;exitDy=0;" edge="1" parent="1" source="f22SK7kLjeVwcVovHJJA-12" target="f22SK7kLjeVwcVovHJJA-11">
          <mxGeometry relative="1" as="geometry">
            <mxPoint x="650" y="720" as="sourcePoint" />
            <mxPoint x="750" y="720" as="targetPoint" />
          </mxGeometry>
        </mxCell>
        <mxCell id="f22SK7kLjeVwcVovHJJA-58" value="updated&lt;br&gt;recv buffer" style="edgeLabel;resizable=0;html=1;;align=center;verticalAlign=middle;" connectable="0" vertex="1" parent="f22SK7kLjeVwcVovHJJA-57">
          <mxGeometry relative="1" as="geometry" />
        </mxCell>
        <mxCell id="f22SK7kLjeVwcVovHJJA-59" value="" style="endArrow=classic;html=1;rounded=0;entryX=0;entryY=0.5;entryDx=0;entryDy=0;exitX=1;exitY=0.5;exitDx=0;exitDy=0;" edge="1" parent="1" source="f22SK7kLjeVwcVovHJJA-12" target="f22SK7kLjeVwcVovHJJA-13">
          <mxGeometry relative="1" as="geometry">
            <mxPoint x="650" y="720" as="sourcePoint" />
            <mxPoint x="750" y="720" as="targetPoint" />
          </mxGeometry>
        </mxCell>
        <mxCell id="f22SK7kLjeVwcVovHJJA-60" value="accumulated&lt;br&gt;data" style="edgeLabel;resizable=0;html=1;;align=center;verticalAlign=middle;" connectable="0" vertex="1" parent="f22SK7kLjeVwcVovHJJA-59">
          <mxGeometry relative="1" as="geometry" />
        </mxCell>
        <mxCell id="f22SK7kLjeVwcVovHJJA-61" value="" style="endArrow=classic;html=1;rounded=0;exitX=0;exitY=0.5;exitDx=0;exitDy=0;entryX=1;entryY=0.5;entryDx=0;entryDy=0;" edge="1" parent="1" source="f22SK7kLjeVwcVovHJJA-15" target="f22SK7kLjeVwcVovHJJA-32">
          <mxGeometry relative="1" as="geometry">
            <mxPoint x="650" y="720" as="sourcePoint" />
            <mxPoint x="750" y="720" as="targetPoint" />
          </mxGeometry>
        </mxCell>
        <mxCell id="f22SK7kLjeVwcVovHJJA-62" value="packets to encrypt and send" style="edgeLabel;resizable=0;html=1;;align=center;verticalAlign=middle;" connectable="0" vertex="1" parent="f22SK7kLjeVwcVovHJJA-61">
          <mxGeometry relative="1" as="geometry" />
        </mxCell>
        <mxCell id="f22SK7kLjeVwcVovHJJA-63" value="bytes to packets" style="rounded=1;whiteSpace=wrap;html=1;" vertex="1" parent="1">
          <mxGeometry x="1040" y="910" width="120" height="60" as="geometry" />
        </mxCell>
        <mxCell id="f22SK7kLjeVwcVovHJJA-65" value="" style="endArrow=classic;html=1;rounded=0;exitX=0;exitY=0.5;exitDx=0;exitDy=0;entryX=1;entryY=0.5;entryDx=0;entryDy=0;" edge="1" parent="1" source="f22SK7kLjeVwcVovHJJA-63" target="f22SK7kLjeVwcVovHJJA-15">
          <mxGeometry relative="1" as="geometry">
            <mxPoint x="1370" y="720" as="sourcePoint" />
            <mxPoint x="1470" y="720" as="targetPoint" />
          </mxGeometry>
        </mxCell>
        <mxCell id="f22SK7kLjeVwcVovHJJA-66" value="data packets" style="edgeLabel;resizable=0;html=1;;align=center;verticalAlign=middle;" connectable="0" vertex="1" parent="f22SK7kLjeVwcVovHJJA-65">
          <mxGeometry relative="1" as="geometry" />
        </mxCell>
      </root>
    </mxGraphModel>
  </diagram>
</mxfile>
